{"title":"Stuck Between Stations 2011 DVDRip XViD DTRG","uid":7106275,"size":1465533716,"categoryP":"video","categoryS":"movies","magnet":"?xt=urn:btih:cd4880754b526fbd1a4005105a708becd2a070e5&amp;dn=Stuck+Between+Stations+2011+DVDRip+XViD+DTRG&amp;tr=udp%3A%2F%2Ftracker.openbittorrent.com%3A80&amp;tr=udp%3A%2F%2Fopen.demonii.com%3A1337&amp;tr=udp%3A%2F%2Ftracker.coppersurfer.tk%3A6969&amp;tr=udp%3A%2F%2Fexodus.desync.com%3A6969","seeders":0,"leechers":1,"uploader":"HeroMaster","files":-1,"time":1331879773,"description":"Stuck Between Stations 2011 DVDRip XViD DTRG\n\nFormat : AVI\nFormat/Info : Audio Video Interleave\nFile size : 1.35 GiB\nDuration : 1h 24mn\nOverall bit rate : 2 294 Kbps\nWriting library : VirtualDub build 32842/release\n\nVideo\nID : 0\nFormat : MPEG-4 Visual\nFormat profile : Advanced Simple@L5\nFormat settings, BVOP : 2\nFormat settings, QPel : No\nFormat settings, GMC : No warppoints\nFormat settings, Matrix : Default (H.263)\nMuxing mode : Packed bitstream\nCodec ID : XVID\nCodec ID/Hint : XviD\nDuration : 1h 24mn\nBit rate : 1 835 Kbps\nWidth : 720 pixels\nHeight : 400 pixels\nDisplay aspect ratio : 16:9\nFrame rate : 29.970 fps\nColor space : YUV\nChroma subsampling : 4:2:0\nBit depth : 8 bits\nScan type : Progressive\nCompression mode : Lossy\nBits/(Pixel*Frame) : 0.213\nStream size : 1.08 GiB (80%)\nWriting library : XviD 64\n\nAudio\nID : 1\nFormat : AC-3\nFormat/Info : Audio Coding 3\nMode extension : CM (complete main)\nCodec ID : 2000\nDuration : 1h 24mn\nBit rate mode : Constant\nBit rate : 448 Kbps\nChannel(s) : 6 channels\nChannel positions : Front: L C R, Side: L R, LFE\nSampling rate : 48.0 KHz\nBit depth : 16 bits\nCompression mode : Lossy\nStream size : 271 MiB (20%)\nAlignment : Aligned on interleaves\nInterleave, duration : 33 ms (1.00 video frame)\nInterleave, preload duration : 512 ms\n\n &lt;a href=&quot;\nhttp://www.imdb.com/title/tt1536440/&quot; rel=&quot;nofollow&quot; target=&quot;_NEW&quot;&gt;\nhttp://www.imdb.com/title/tt1536440/&lt;/a&gt;\n\n\nStoryline:\n\n\nCasper, a soldier haunted by the horrors of war, and Rebecca, a whip-smart grad student with a shaky future. A decade after they graduate from high school, they reunite by chance and get to know each other over the course of an accidental tour of the little-known underbelly of Minneapolis. \n\n\nSource Used:\n\n\nStuck Between Stations 2011 COMPLETE R1 NTSC DVDR-CME....Thanks\n\n\nPoster:\n\n &lt;a href=&quot;\nhttp://i.imgur.com/4TaBp.jpg&quot; rel=&quot;nofollow&quot; target=&quot;_NEW&quot;&gt;\nhttp://i.imgur.com/4TaBp.jpg&lt;/a&gt;\n\n\nScreenshots:\n\n &lt;a href=&quot;\nhttp://i.imgur.com/jC5KR.jpg&quot; rel=&quot;nofollow&quot; target=&quot;_NEW&quot;&gt;\nhttp://i.imgur.com/jC5KR.jpg&lt;/a&gt;\n\n\nENJOY!","torrent":{"xt":"urn:btih:cd4880754b526fbd1a4005105a708becd2a070e5","amp;dn":"Stuck+Between+Stations+2011+DVDRip+XViD+DTRG","amp;tr":["udp%3A%2F%2Ftracker.openbittorrent.com%3A80","udp%3A%2F%2Fopen.demonii.com%3A1337","udp%3A%2F%2Ftracker.coppersurfer.tk%3A6969","udp%3A%2F%2Fexodus.desync.com%3A6969"],"infoHash":"cd4880754b526fbd1a4005105a708becd2a070e5","infoHashBuffer":{"type":"Buffer","data":[205,72,128,117,75,82,111,189,26,64,5,16,90,112,139,236,210,160,112,229]},"announce":[],"urlList":[]}}